<?xml version="1.0" standalone="no"?>
<!DOCTYPE svg PUBLIC "-//W3C//DTD SVG 20010904//EN"
 "http://www.w3.org/TR/2001/REC-SVG-20010904/DTD/svg10.dtd">
<svg version="1.0" xmlns="http://www.w3.org/2000/svg"
 width="466.000000pt" height="234.000000pt" viewBox="0 0 466.000000 234.000000"
 preserveAspectRatio="xMidYMid meet">

<g transform="translate(0.000000,234.000000) scale(0.100000,-0.100000)"
fill="#000000" stroke="none">
<path d="M3078 2142 c-27 -1 -48 -7 -48 -12 0 -4 -15 -17 -33 -28 -18 -10 -55
-48 -83 -84 -43 -57 -128 -168 -570 -743 -107 -139 -141 -178 -175 -195 -32
-18 -179 -31 -262 -23 -78 7 -77 6 -159 162 -22 41 -48 87 -58 101 -9 14 -53
90 -97 170 -178 320 -186 333 -218 342 -16 5 -93 8 -170 9 -208 0 -191 2 -173
-18 9 -10 78 -128 153 -263 76 -135 172 -306 215 -380 42 -74 120 -211 174
-305 53 -93 104 -180 112 -193 13 -18 14 -22 3 -23 -8 0 -5 -4 6 -9 15 -6 8
-9 -28 -9 -31 -1 -46 -5 -42 -11 4 -7 77 -10 203 -9 285 2 472 10 466 20 -3 5
6 9 20 9 14 0 25 4 23 9 -1 5 12 24 29 43 18 19 49 59 69 89 108 154 132 187
161 224 17 22 61 84 97 138 36 54 69 97 72 96 4 0 10 3 13 7 4 4 1 4 -5 0 -23
-13 -14 2 60 106 40 57 94 135 120 173 71 106 79 117 110 157 16 21 26 42 23
47 -3 5 1 14 9 21 8 7 15 9 15 6 0 -4 20 5 44 19 42 24 50 26 188 24 127 -1
183 -8 168 -22 -3 -2 -63 -7 -135 -11 -145 -7 -208 -23 -251 -64 -17 -15 -65
-71 -108 -124 l-78 -97 6 -313 c7 -364 8 -378 15 -378 4 0 17 -23 30 -51 20
-42 35 -57 91 -90 l67 -39 189 -9 c273 -12 907 -6 849 9 -25 6 -26 8 -7 9 25
1 117 57 144 87 35 40 47 123 48 356 1 123 0 230 -3 238 -3 8 -8 62 -10 120
-5 111 -18 157 -65 218 -55 72 -188 108 -442 117 -91 3 -198 8 -239 11 l-73 6
29 18 c37 22 69 73 78 122 11 58 -13 144 -52 186 l-34 37 -217 1 c-119 0 -238
-2 -264 -4z m457 -24 c71 -11 109 -129 69 -213 -25 -54 -63 -65 -236 -71 -84
-2 -167 -7 -184 -10 -52 -8 -108 -57 -185 -161 -40 -54 -75 -100 -79 -103 -3
-3 -28 -34 -55 -70 -27 -36 -53 -69 -58 -75 -4 -5 -18 -24 -30 -41 -30 -43
-115 -156 -127 -171 -6 -7 -9 -13 -7 -13 3 0 -6 -12 -19 -27 -44 -51 -149
-187 -214 -277 -141 -196 -152 -201 -377 -201 -168 0 -172 -1 -197 -24 -14
-14 -26 -21 -26 -17 0 4 12 17 27 30 25 21 39 24 186 30 228 10 214 1 418 271
90 119 257 341 371 493 114 153 227 298 251 324 52 54 90 68 192 69 39 0 116
4 173 8 94 7 105 10 133 37 29 27 30 33 26 83 -3 44 -9 59 -31 78 -26 22 -32
23 -230 23 -264 0 -285 -7 -376 -130 -27 -36 -155 -203 -287 -372 -131 -168
-272 -352 -313 -408 -124 -168 -148 -180 -368 -180 -200 0 -231 -10 -271 -92
-9 -18 -12 -42 -7 -75 4 -26 9 -61 11 -76 2 -15 9 -34 15 -42 9 -10 9 -15 1
-15 -17 0 -52 77 -58 129 -7 57 9 110 45 153 43 51 73 58 256 58 91 0 176 4
190 10 37 14 117 90 109 104 -3 6 -3 8 2 4 10 -10 65 63 58 77 -4 5 -3 7 2 3
6 -6 69 66 125 146 8 11 50 65 92 120 42 55 75 103 72 108 -3 5 -1 7 4 6 9 -3
32 25 138 162 121 157 184 241 184 246 0 8 44 50 74 69 15 10 44 22 64 26 33
7 397 5 447 -3z m-335 -52 c0 -8 -5 -16 -11 -18 -5 -2 -15 -24 -20 -48 -5 -25
-15 -49 -22 -55 -21 -17 -48 -65 -37 -65 6 0 14 8 17 18 4 9 16 26 26 37 19
20 19 20 12 -2 -10 -36 3 -27 26 18 11 23 32 54 45 68 14 14 23 34 20 44 -4
16 14 24 27 11 8 -8 -9 -40 -34 -68 -11 -11 -19 -26 -19 -33 0 -7 -4 -13 -8
-13 -10 0 -45 -60 -39 -67 3 -2 11 6 18 18 6 13 20 32 30 43 11 11 19 23 19
28 0 4 8 17 18 29 55 66 53 64 63 49 6 -10 12 -11 17 -5 4 6 20 8 37 4 l30 -7
-31 -1 c-22 -1 -34 -8 -44 -26 -7 -14 -11 -28 -7 -31 3 -4 12 5 18 20 10 21
19 26 49 26 20 0 39 -2 42 -5 7 -7 -14 -55 -24 -55 -5 0 -8 -5 -8 -11 0 -6 -7
-18 -16 -26 -13 -14 -17 -14 -24 -2 -7 10 -11 8 -18 -11 -8 -22 -6 -26 17 -31
22 -4 19 -6 -17 -10 -24 -3 -46 -1 -48 3 -3 4 -1 8 4 8 10 0 35 50 29 56 -2 3
-16 -13 -31 -34 -25 -36 -30 -39 -79 -40 -73 -2 -91 -5 -100 -19 -4 -7 -13
-13 -19 -13 -6 0 -27 -12 -46 -27 -28 -21 -34 -23 -29 -8 6 15 5 16 -7 6 -8
-7 -12 -19 -9 -26 2 -8 -10 -35 -28 -60 -32 -45 -49 -56 -49 -32 0 13 -39 -33
-40 -47 0 -5 10 -1 22 10 l21 19 -17 -27 c-14 -22 -20 -25 -31 -15 -11 10 -11
18 1 47 12 31 12 33 -1 16 -21 -28 -27 -15 -9 19 9 19 10 25 3 18 -7 -7 -16
-13 -21 -13 -8 0 21 57 40 78 19 21 14 24 -13 6 -14 -9 -25 -20 -25 -24 0 -4
-10 -18 -22 -31 -13 -14 -31 -36 -41 -49 -17 -25 -17 -25 -2 5 18 36 36 65 50
80 6 7 19 24 30 39 11 16 40 54 63 85 24 31 50 67 57 82 27 51 195 107 195 65z
m25 -29 c-8 -12 -22 -35 -30 -52 -22 -46 -17 -6 5 43 11 25 24 41 30 37 8 -5
6 -14 -5 -28z m215 -77 c-7 -16 -16 -30 -20 -30 -4 0 0 16 8 35 19 42 30 38
12 -5z m-2047 -225 c-3 -9 -8 -14 -10 -11 -3 3 -2 9 2 15 9 16 15 13 8 -4z
m2015 -15 c-11 -18 -28 -27 -28 -16 0 6 30 36 36 36 2 0 -1 -9 -8 -20z m46 5
c-4 -9 -16 -21 -28 -27 -19 -10 -19 -9 3 16 28 30 33 32 25 11z m11 -37 c-69
-75 -69 -75 -57 -52 6 11 18 27 27 34 9 7 23 26 31 42 8 15 22 28 31 28 10 0
0 -17 -32 -52z m65 27 c-13 -14 -27 -25 -32 -25 -15 0 26 49 41 50 10 0 7 -8
-9 -25z m60 17 c0 -4 -9 -13 -20 -20 -22 -13 -27 -3 -8 16 14 14 28 16 28 4z
m45 -2 c-3 -5 -11 -10 -16 -10 -6 0 -7 5 -4 10 3 6 11 10 16 10 6 0 7 -4 4
-10z m45 0 c0 -5 -5 -10 -11 -10 -5 0 -7 5 -4 10 3 6 8 10 11 10 2 0 4 -4 4
-10z m-2250 -5 c0 -11 -50 -104 -59 -109 -5 -4 2 16 15 44 13 27 24 54 24 60
0 5 5 10 10 10 6 0 10 -2 10 -5z m1944 -7 c-3 -5 -12 -7 -19 -4 -7 2 -18 -1
-24 -7 -7 -7 -11 -7 -11 -1 0 16 9 22 35 22 14 0 22 -5 19 -10z m-114 -11 c0
-2 -10 -12 -22 -23 l-23 -19 19 23 c18 21 26 27 26 19z m-1822 -42 c-6 -14
-13 -24 -14 -22 -6 6 9 47 17 47 5 0 3 -11 -3 -25z m2083 -8 c-13 -12 -20 -15
-15 -7 12 22 28 39 33 34 3 -3 -6 -15 -18 -27z m-2051 -5 c0 -5 -6 -17 -14
-27 -13 -18 -14 -18 -9 8 5 24 23 39 23 19z m2090 4 c0 -2 -8 -10 -17 -17 -16
-13 -17 -12 -4 4 13 16 21 21 21 13z m-80 -9 c0 -2 -12 -14 -27 -28 l-26 -24
19 27 c16 23 34 36 34 25z m-2080 -57 c-16 -31 -23 -18 -8 15 7 15 14 23 16
17 2 -6 -2 -21 -8 -32z m-49 -17 c-12 -20 -14 -14 -5 12 4 9 9 14 11 11 3 -2
0 -13 -6 -23z m70 -20 c-11 -21 -20 -35 -21 -31 0 12 33 78 38 74 2 -2 -6 -21
-17 -43z m47 17 c-9 -27 -28 -50 -28 -35 0 9 30 65 35 65 2 0 -1 -14 -7 -30z
m17 -41 c-9 -17 -19 -28 -22 -25 -6 6 23 56 32 56 3 0 -2 -14 -10 -31z m26
-25 c-12 -21 -21 -33 -21 -26 0 18 30 75 36 69 3 -3 -4 -22 -15 -43z m-155 -1
c-8 -15 -15 -25 -16 -21 0 12 23 58 27 54 3 -2 -2 -17 -11 -33z m2275 -160 c1
-109 2 -277 3 -373 l1 -175 -140 3 c-165 3 -199 15 -230 77 -19 37 -20 59 -19
297 2 242 3 259 23 291 11 18 33 39 48 47 33 15 126 27 236 29 l77 1 1 -197z
m332 186 c21 -5 51 -22 68 -37 43 -39 51 -104 47 -371 -4 -319 -5 -319 -247
-322 -78 -1 -143 0 -145 2 -2 2 -6 169 -8 372 l-5 367 126 0 c69 0 143 -5 164
-11z m-2480 -84 c-3 -9 -8 -14 -10 -11 -3 3 -2 9 2 15 9 16 15 13 8 -4z m100
-30 c-3 -9 -8 -14 -10 -11 -3 3 -2 9 2 15 9 16 15 13 8 -4z m-50 -40 c-3 -9
-8 -14 -10 -11 -3 3 -2 9 2 15 9 16 15 13 8 -4z m29 -7 c-7 -7 -12 -8 -12 -2
0 6 3 14 7 17 3 4 9 5 12 2 2 -3 -1 -11 -7 -17z m-20 -40 c-7 -7 -12 -8 -12
-2 0 6 3 14 7 17 3 4 9 5 12 2 2 -3 -1 -11 -7 -17z m586 -360 c28 0 28 -6 0
-35 -12 -13 -17 -23 -12 -23 5 0 16 9 24 21 39 55 39 56 40 37 0 -10 -3 -18
-8 -18 -4 0 -19 -20 -32 -45 -14 -26 -30 -43 -37 -40 -8 2 -13 -4 -14 -18 0
-20 -1 -20 -8 -3 -6 17 -9 16 -26 -10 -12 -20 -14 -25 -3 -17 12 11 17 9 27
-11 7 -13 10 -33 6 -45 -4 -14 -2 -21 6 -21 7 0 10 -2 7 -5 -10 -11 -34 6 -52
35 -9 17 -21 30 -26 30 -5 0 0 -16 11 -35 12 -20 16 -35 10 -35 -6 0 -19 13
-29 30 -9 16 -35 61 -57 100 -22 38 -42 65 -43 60 -2 -6 17 -44 42 -86 25 -42
43 -80 40 -85 -3 -5 0 -9 5 -9 6 0 11 -4 11 -10 0 -6 -28 -10 -65 -10 -55 0
-65 3 -66 18 0 12 -3 11 -10 -7 -8 -20 -14 -23 -45 -18 -63 11 -104 68 -104
144 1 47 17 78 56 104 27 19 39 20 179 14 83 -3 160 -6 173 -7z"/>
<path d="M3293 2017 c-13 -18 -23 -37 -23 -43 0 -5 -14 -23 -30 -41 -30 -32
-38 -47 -20 -41 14 5 90 110 90 125 0 7 5 13 10 13 6 0 10 5 10 10 0 19 -15
10 -37 -23z"/>
<path d="M3371 2017 c-6 -6 -11 -15 -11 -20 0 -5 7 -1 16 7 24 25 37 19 14 -6
-19 -21 -26 -38 -14 -38 6 0 15 10 47 46 17 20 17 21 -12 22 -15 0 -33 -4 -40
-11z"/>
<path d="M3143 2008 c-19 -25 -35 -61 -24 -54 6 4 18 20 26 37 16 30 15 38 -2
17z"/>
<path d="M3310 1974 c0 -5 -14 -23 -30 -41 -31 -33 -36 -43 -22 -43 11 0 64
81 57 88 -3 3 -5 1 -5 -4z"/>
<path d="M2982 1930 c-7 -11 -8 -20 -3 -20 9 0 24 30 18 36 -1 2 -8 -6 -15
-16z"/>
<path d="M3007 1856 c-4 -10 -5 -21 -2 -24 9 -9 17 6 13 25 -3 17 -4 17 -11
-1z"/>
<path d="M2947 1829 c-10 -11 -16 -24 -13 -27 6 -6 35 27 36 41 0 11 -4 9 -23
-14z"/>
<path d="M2975 1810 c-3 -5 -1 -10 4 -10 6 0 11 5 11 10 0 6 -2 10 -4 10 -3 0
-8 -4 -11 -10z"/>
<path d="M2910 1780 c0 -5 5 -10 10 -10 6 0 10 5 10 10 0 6 -4 10 -10 10 -5 0
-10 -4 -10 -10z"/>
<path d="M2955 1779 c-4 -6 -5 -12 -2 -15 2 -3 7 2 10 11 7 17 1 20 -8 4z"/>
<path d="M2982 1767 c-12 -13 -22 -27 -22 -31 0 -8 15 6 39 37 20 25 8 21 -17
-6z"/>
<path d="M3530 1209 c-57 -47 -70 -59 -70 -69 0 -12 103 -89 113 -83 4 2 7 42
7 89 0 92 -6 99 -50 63z"/>
<path d="M3737 1223 c-7 -14 8 -168 16 -167 18 3 107 77 107 89 0 15 -88 85
-106 85 -7 0 -15 -3 -17 -7z"/>
<path d="M1951 905 c45 -84 56 -98 64 -86 3 6 1 11 -5 11 -7 0 -10 7 -6 15 3
8 1 14 -5 12 -6 -1 -21 18 -34 42 -13 24 -29 49 -35 55 -7 6 3 -16 21 -49z"/>
<path d="M2061 784 c0 -11 3 -14 6 -6 3 7 2 16 -1 19 -3 4 -6 -2 -5 -13z"/>
<path d="M1200 1932 c6 -13 14 -21 18 -18 3 4 -2 14 -12 24 -18 16 -18 16 -6
-6z"/>
<path d="M378 1848 c-8 -21 -1 -968 7 -1013 8 -41 14 -50 56 -93 42 -43 67
-61 94 -68 14 -3 28 -10 31 -15 3 -5 16 -9 30 -9 14 0 27 -7 31 -16 3 -9 9
-12 12 -7 3 4 185 7 404 5 367 -2 397 -4 398 -20 0 -13 3 -12 11 6 6 12 16 22
22 22 6 0 4 5 -4 10 -12 7 -16 38 -18 147 l-4 138 -281 -6 c-321 -7 -426 -1
-466 28 -49 37 -53 67 -58 491 l-6 392 -116 0 c-70 0 -121 4 -128 11 -7 7 -12
7 -15 -3z m162 -42 c0 -2 -8 -10 -17 -17 -16 -13 -17 -12 -4 4 13 16 21 21 21
13z m37 -38 c-22 -32 -70 -86 -60 -68 20 37 66 100 71 96 3 -3 -2 -16 -11 -28z
m40 -100 c-2 -24 -4 -7 -4 37 0 44 2 63 4 43 2 -21 2 -57 0 -80z m-36 64 c-5
-9 -19 -26 -32 -37 -19 -16 -18 -13 5 18 30 39 43 49 27 19z m9 -26 c0 -2 -8
-10 -17 -17 -16 -13 -17 -12 -4 4 13 16 21 21 21 13z m-116 -118 c-68 -98 -64
-94 -64 -82 1 11 108 164 116 164 2 0 -21 -37 -52 -82z m106 -32 c0 -2 -8 -10
-17 -17 -16 -13 -17 -12 -4 4 13 16 21 21 21 13z m-17 -59 c-22 -34 -86 -117
-90 -117 -3 0 -1 6 4 13 71 96 88 117 91 117 1 0 -1 -6 -5 -13z m54 -84 c-3
-10 -5 -4 -5 12 0 17 2 24 5 18 2 -7 2 -21 0 -30z m-180 -49 c-17 -25 -33 -41
-35 -36 -2 8 56 82 65 82 1 0 -12 -20 -30 -46z m-21 -86 c-9 -12 -16 -17 -16
-10 0 18 24 54 28 42 2 -5 -4 -20 -12 -32z m93 5 c-40 -47 -42 -49 -34 -33 10
19 47 60 53 60 3 0 -5 -12 -19 -27z m-96 -63 c-3 -12 -8 -19 -11 -16 -5 6 5
36 12 36 2 0 2 -9 -1 -20z m0 -65 c-7 -21 -13 -19 -13 6 0 11 4 18 10 14 5 -3
7 -12 3 -20z m30 -15 c-15 -22 -32 -40 -37 -40 -9 0 3 18 38 58 30 35 30 26
-1 -18z m-22 -153 c-10 -9 -11 -8 -5 6 3 10 9 15 12 12 3 -3 0 -11 -7 -18z m9
-41 c0 -3 -4 -8 -10 -11 -5 -3 -10 -1 -10 4 0 6 5 11 10 11 6 0 10 -2 10 -4z"/>
<path d="M668 1833 c7 -3 16 -2 19 1 4 3 -2 6 -13 5 -11 0 -14 -3 -6 -6z"/>
<path d="M3095 1750 c-3 -5 -1 -10 4 -10 6 0 11 5 11 10 0 6 -2 10 -4 10 -3 0
-8 -4 -11 -10z"/>
<path d="M391 734 c0 -11 3 -14 6 -6 3 7 2 16 -1 19 -3 4 -6 -2 -5 -13z"/>
<path d="M283 653 c9 -2 25 -2 35 0 9 3 1 5 -18 5 -19 0 -27 -2 -17 -5z"/>
<path d="M388 635 c2 -14 8 -22 13 -20 12 8 7 45 -7 45 -7 0 -9 -10 -6 -25z"/>
<path d="M4330 640 c0 -5 5 -10 11 -10 5 0 7 5 4 10 -3 6 -8 10 -11 10 -2 0
-4 -4 -4 -10z"/>
<path d="M488 633 c6 -2 18 -2 25 0 6 3 1 5 -13 5 -14 0 -19 -2 -12 -5z"/>
<path d="M548 633 c6 -2 18 -2 25 0 6 3 1 5 -13 5 -14 0 -19 -2 -12 -5z"/>
<path d="M1510 629 c0 -5 5 -7 10 -4 6 3 10 8 10 11 0 2 -4 4 -10 4 -5 0 -10
-5 -10 -11z"/>
<path d="M2328 633 c7 -3 16 -2 19 1 4 3 -2 6 -13 5 -11 0 -14 -3 -6 -6z"/>
<path d="M2825 631 c3 -6 22 -11 42 -11 44 0 41 5 -10 14 -27 5 -37 4 -32 -3z"/>
<path d="M2950 630 c0 -5 5 -10 10 -10 6 0 10 5 10 10 0 6 -4 10 -10 10 -5 0
-10 -4 -10 -10z"/>
<path d="M3050 630 c19 -13 30 -13 30 0 0 6 -10 10 -22 10 -19 0 -20 -2 -8
-10z"/>
<path d="M4253 633 c9 -2 23 -2 30 0 6 3 -1 5 -18 5 -16 0 -22 -2 -12 -5z"/>
<path d="M4418 633 c6 -2 18 -2 25 0 6 3 1 5 -13 5 -14 0 -19 -2 -12 -5z"/>
<path d="M4332 590 c0 -19 2 -27 5 -17 2 9 2 25 0 35 -3 9 -5 1 -5 -18z"/>
<path d="M1916 475 c-17 -17 -21 -35 -8 -35 9 0 35 40 29 46 -3 3 -12 -2 -21
-11z"/>
<path d="M1088 473 c-3 -4 -6 -59 -7 -120 -3 -110 -2 -113 19 -113 21 0 21 3
18 117 -2 77 -7 118 -15 120 -6 2 -13 0 -15 -4z"/>
<path d="M2420 465 c0 -8 7 -15 15 -15 8 0 15 7 15 15 0 8 -7 15 -15 15 -8 0
-15 -7 -15 -15z"/>
<path d="M3120 465 c0 -8 7 -15 15 -15 8 0 15 7 15 15 0 8 -7 15 -15 15 -8 0
-15 -7 -15 -15z"/>
<path d="M1267 404 c-4 -4 -7 -43 -7 -86 0 -63 3 -78 15 -78 12 0 15 13 15 58
0 62 11 82 46 82 31 0 38 -14 36 -82 -1 -42 3 -58 12 -58 27 0 30 124 3 158
-13 16 -49 15 -72 -2 -17 -12 -21 -12 -30 1 -6 8 -14 11 -18 7z"/>
<path d="M1564 385 c-55 -55 -4 -167 62 -136 34 15 38 10 30 -34 -8 -40 -37
-58 -73 -44 -12 4 -25 5 -27 0 -9 -14 6 -21 50 -21 34 0 47 5 64 27 18 24 20
38 18 126 l-3 99 -48 4 c-41 3 -52 0 -73 -21z m77 -5 c14 -8 19 -21 19 -54 0
-45 -10 -56 -50 -56 -40 0 -53 67 -20 100 23 23 25 23 51 10z"/>
<path d="M1855 386 c-48 -48 -39 -117 19 -145 32 -15 86 -5 94 18 3 10 -2 11
-19 5 -49 -16 -89 1 -89 37 0 17 8 19 60 19 35 0 60 4 60 10 0 25 -31 68 -52
74 -38 10 -48 7 -73 -18z m83 -23 c14 -23 14 -23 -32 -23 -49 0 -63 19 -28 39
24 15 42 10 60 -16z"/>
<path d="M2127 404 c-4 -4 -7 -43 -7 -86 0 -63 3 -78 15 -78 12 0 15 13 15 59
0 64 13 85 52 79 21 -3 23 -9 26 -70 2 -52 6 -68 17 -68 22 0 21 133 -1 154
-19 20 -44 20 -69 2 -17 -12 -21 -12 -30 1 -6 8 -14 11 -18 7z"/>
<path d="M2426 403 c-3 -3 -6 -42 -6 -85 0 -63 3 -78 15 -78 12 0 15 15 15 79
0 74 -7 100 -24 84z"/>
<path d="M2634 398 c-45 -21 -58 -99 -24 -136 26 -28 65 -37 96 -23 33 15 32
34 -1 21 -41 -16 -85 10 -85 51 0 5 27 9 60 9 57 0 60 1 60 24 0 27 -42 66
-69 65 -9 0 -26 -5 -37 -11z m57 -18 c36 -20 23 -40 -26 -40 -49 0 -53 4 -28
32 19 21 27 22 54 8z"/>
<path d="M2890 325 c0 -69 3 -85 15 -85 12 0 15 13 15 58 0 60 11 82 42 82 10
0 18 7 18 15 0 17 -14 19 -40 5 -13 -7 -21 -7 -25 0 -17 27 -25 2 -25 -75z"/>
<path d="M3120 326 c0 -71 3 -86 15 -86 13 0 15 14 13 82 -2 54 -7 83 -15 86
-10 3 -13 -18 -13 -82z"/>
<path d="M3334 398 c-40 -19 -58 -94 -31 -129 7 -9 23 -21 36 -28 29 -16 91
-6 91 14 0 11 -6 12 -25 5 -41 -16 -85 10 -85 51 0 5 27 9 60 9 57 0 60 1 60
24 0 27 -42 66 -69 65 -9 0 -26 -5 -37 -11z m70 -30 c14 -24 5 -30 -43 -26
-41 3 -41 3 -25 26 18 26 51 26 68 0z"/>
</g>
</svg>
